<svg width="21" height="30" viewBox="0 0 21 30" fill="none" xmlns="http://www.w3.org/2000/svg">
<path d="M10.5 30C10.15 30 9.85 29.9 9.6 29.7C9.35 29.5 9.1625 29.2375 9.0375 28.9125C8.5625 27.5125 7.9625 26.2 7.2375 24.975C6.5375 23.75 5.55 22.3125 4.275 20.6625C3 19.0125 1.9625 17.4375 1.1625 15.9375C0.3875 14.4375 0 12.625 0 10.5C0 7.575 1.0125 5.1 3.0375 3.075C5.0875 1.025 7.575 0 10.5 0C13.425 0 15.9 1.025 17.925 3.075C19.975 5.1 21 7.575 21 10.5C21 12.775 20.5625 14.675 19.6875 16.2C18.8375 17.7 17.85 19.1875 16.725 20.6625C15.375 22.4625 14.35 23.9625 13.65 25.1625C12.975 26.3375 12.4125 27.5875 11.9625 28.9125C11.8375 29.2625 11.6375 29.5375 11.3625 29.7375C11.1125 29.9125 10.825 30 10.5 30ZM10.5 14.25C11.55 14.25 12.4375 13.8875 13.1625 13.1625C13.8875 12.4375 14.25 11.55 14.25 10.5C14.25 9.45 13.8875 8.5625 13.1625 7.8375C12.4375 7.1125 11.55 6.75 10.5 6.75C9.45 6.75 8.5625 7.1125 7.8375 7.8375C7.1125 8.5625 6.75 9.45 6.75 10.5C6.75 11.55 7.1125 12.4375 7.8375 13.1625C8.5625 13.8875 9.45 14.25 10.5 14.25Z" fill="#1D1B20"/>
</svg>
