<svg width="22" height="30" viewBox="0 0 22 30" fill="none" xmlns="http://www.w3.org/2000/svg">
<path d="M11 30C10.65 30 10.35 29.9 10.1 29.7C9.85 29.5 9.6625 29.2375 9.5375 28.9125C9.0625 27.5125 8.4625 26.2 7.7375 24.975C7.0375 23.75 6.05 22.3125 4.775 20.6625C3.5 19.0125 2.4625 17.4375 1.6625 15.9375C0.8875 14.4375 0.5 12.625 0.5 10.5C0.5 7.575 1.5125 5.1 3.5375 3.075C5.5875 1.025 8.075 0 11 0C13.925 0 16.4 1.025 18.425 3.075C20.475 5.1 21.5 7.575 21.5 10.5C21.5 12.775 21.0625 14.675 20.1875 16.2C19.3375 17.7 18.35 19.1875 17.225 20.6625C15.875 22.4625 14.85 23.9625 14.15 25.1625C13.475 26.3375 12.9125 27.5875 12.4625 28.9125C12.3375 29.2625 12.1375 29.5375 11.8625 29.7375C11.6125 29.9125 11.325 30 11 30ZM11 14.25C12.05 14.25 12.9375 13.8875 13.6625 13.1625C14.3875 12.4375 14.75 11.55 14.75 10.5C14.75 9.45 14.3875 8.5625 13.6625 7.8375C12.9375 7.1125 12.05 6.75 11 6.75C9.95 6.75 9.0625 7.1125 8.3375 7.8375C7.6125 8.5625 7.25 9.45 7.25 10.5C7.25 11.55 7.6125 12.4375 8.3375 13.1625C9.0625 13.8875 9.95 14.25 11 14.25Z" fill="#1D1B20"/>
</svg>
